<?xml version="1.0" encoding="UTF-8" standalone="no"?>
<!DOCTYPE svg PUBLIC "-//W3C//DTD SVG 1.1//EN"
 "http://www.w3.org/Graphics/SVG/1.1/DTD/svg11.dtd">
<!-- Generated by graphviz version 2.46.1 (20210213.1702)
 -->
<!-- Title: G Pages: 1 -->
<svg width="589pt" height="116pt"
 viewBox="0.00 0.00 588.70 116.00" xmlns="http://www.w3.org/2000/svg" xmlns:xlink="http://www.w3.org/1999/xlink">
<g id="graph0" class="graph" transform="scale(1 1) rotate(0) translate(4 112)">
<title>G</title>
<polygon fill="white" stroke="transparent" points="-4,4 -4,-112 584.7,-112 584.7,4 -4,4"/>
<polygon fill="white" stroke="white" points="0,0 0,-238 352,-238 352,0 0,0"/>
<!-- tags -->
<g id="node1" class="node">
<title>tags</title>
<polygon fill="darkseagreen" stroke="darkseagreen" points="263,-108 228.14,-90 263,-72 297.86,-90 263,-108"/>
<text text-anchor="middle" x="263" y="-86.3" font-family="Times,serif" font-size="14.00">tags</text>
</g>
<!-- vim -->
<g id="node2" class="node">
<title>vim</title>
<ellipse fill="lightsteelblue" stroke="lightsteelblue" cx="33" cy="-18" rx="33" ry="18"/>
<text text-anchor="middle" x="33" y="-14.3" font-family="Times,serif" font-size="14.00">vim</text>
</g>
<!-- tags&#45;&gt;vim -->
<g id="edge1" class="edge">
<title>tags&#45;&gt;vim</title>
<path fill="none" stroke="black" d="M240.47,-83.5C204.94,-74.64 133.88,-56.15 75,-36 72.59,-35.18 70.12,-34.29 67.64,-33.37"/>
<polygon fill="black" stroke="black" points="68.74,-30.04 58.15,-29.7 66.22,-36.57 68.74,-30.04"/>
</g>
<!-- python -->
<g id="node3" class="node">
<title>python</title>
<ellipse fill="lightsteelblue" stroke="lightsteelblue" cx="119" cy="-18" rx="35.19" ry="18"/>
<text text-anchor="middle" x="119" y="-14.3" font-family="Times,serif" font-size="14.00">python</text>
</g>
<!-- tags&#45;&gt;python -->
<g id="edge2" class="edge">
<title>tags&#45;&gt;python</title>
<path fill="none" stroke="black" d="M245.92,-80.7C222.99,-69.55 181.78,-49.52 152.55,-35.31"/>
<polygon fill="black" stroke="black" points="154.04,-32.14 143.51,-30.92 150.98,-38.44 154.04,-32.14"/>
</g>
<!-- terminal -->
<g id="node4" class="node">
<title>terminal</title>
<ellipse fill="lightsteelblue" stroke="lightsteelblue" cx="212" cy="-18" rx="40.09" ry="18"/>
<text text-anchor="middle" x="212" y="-14.3" font-family="Times,serif" font-size="14.00">terminal</text>
</g>
<!-- tags&#45;&gt;terminal -->
<g id="edge3" class="edge">
<title>tags&#45;&gt;terminal</title>
<path fill="none" stroke="black" d="M253.88,-76.49C247.22,-67.33 237.96,-54.63 229.84,-43.49"/>
<polygon fill="black" stroke="black" points="232.64,-41.38 223.92,-35.36 226.98,-45.5 232.64,-41.38"/>
</g>
<!-- webdev -->
<g id="node5" class="node">
<title>webdev</title>
<ellipse fill="lightsteelblue" stroke="lightsteelblue" cx="315" cy="-18" rx="45" ry="18"/>
<text text-anchor="middle" x="315" y="-14.3" font-family="Times,serif" font-size="14.00">webdev</text>
</g>
<!-- tags&#45;&gt;webdev -->
<g id="edge4" class="edge">
<title>tags&#45;&gt;webdev</title>
<path fill="none" stroke="black" d="M272.3,-76.49C279.09,-67.33 288.53,-54.63 296.81,-43.49"/>
<polygon fill="black" stroke="black" points="299.69,-45.47 302.85,-35.36 294.07,-41.3 299.69,-45.47"/>
</g>
<!-- concepts -->
<g id="node6" class="node">
<title>concepts</title>
<ellipse fill="lightsteelblue" stroke="lightsteelblue" cx="420" cy="-18" rx="41.69" ry="18"/>
<text text-anchor="middle" x="420" y="-14.3" font-family="Times,serif" font-size="14.00">concepts</text>
</g>
<!-- tags&#45;&gt;concepts -->
<g id="edge5" class="edge">
<title>tags&#45;&gt;concepts</title>
<path fill="none" stroke="black" d="M280.7,-81.11C305.38,-70.11 350.69,-49.9 382.93,-35.53"/>
<polygon fill="black" stroke="black" points="384.35,-38.72 392.06,-31.46 381.5,-32.33 384.35,-38.72"/>
</g>
<!-- networking -->
<g id="node7" class="node">
<title>networking</title>
<ellipse fill="lightsteelblue" stroke="lightsteelblue" cx="530" cy="-18" rx="50.89" ry="18"/>
<text text-anchor="middle" x="530" y="-14.3" font-family="Times,serif" font-size="14.00">networking</text>
</g>
<!-- tags&#45;&gt;networking -->
<g id="edge6" class="edge">
<title>tags&#45;&gt;networking</title>
<path fill="none" stroke="black" d="M285.53,-83.5C323.76,-74.12 403.75,-54.25 471,-36 474.77,-34.98 478.67,-33.9 482.58,-32.8"/>
<polygon fill="black" stroke="black" points="483.61,-36.15 492.28,-30.06 481.7,-29.41 483.61,-36.15"/>
</g>
</g>
</svg>
