<?xml version="1.0" encoding="UTF-8" standalone="no"?>
<!DOCTYPE svg PUBLIC "-//W3C//DTD SVG 1.1//EN"
 "http://www.w3.org/Graphics/SVG/1.1/DTD/svg11.dtd">
<!-- Generated by graphviz version 2.46.1 (20210213.1702)
 -->
<!-- Title: G Pages: 1 -->
<svg width="316pt" height="246pt"
 viewBox="0.00 0.00 316.00 246.00" xmlns="http://www.w3.org/2000/svg" xmlns:xlink="http://www.w3.org/1999/xlink">
<g id="graph0" class="graph" transform="scale(1 1) rotate(0) translate(4 242)">
<title>G</title>
<polygon fill="white" stroke="transparent" points="-4,4 -4,-242 312,-242 312,4 -4,4"/>
<polygon fill="white" stroke="white" points="0,0 0,-250 308,-250 308,0 0,0"/>
<g id="clust1" class="cluster">
<title>cluster_0</title>
<polygon fill="none" stroke="hotpink" points="158,-8 158,-155 300,-155 300,-8 158,-8"/>
<text text-anchor="middle" x="229" y="-139.8" font-family="Times,serif" font-size="14.00">posts</text>
</g>
<g id="clust2" class="cluster">
<title>cluster_1</title>
<polygon fill="none" stroke="purple" stroke-dasharray="5,2" points="8,-8 8,-230 150,-230 150,-8 8,-8"/>
<text text-anchor="middle" x="79" y="-214.8" font-family="Times,serif" font-size="14.00">tags</text>
</g>
<!-- a -->
<g id="node1" class="node">
<title>a</title>
<ellipse fill="none" stroke="black" cx="193" cy="-106" rx="27" ry="18"/>
<text text-anchor="middle" x="193" y="-102.3" font-family="Times,serif" font-size="14.00">a</text>
</g>
<!-- b -->
<g id="node2" class="node">
<title>b</title>
<ellipse fill="none" stroke="black" cx="193" cy="-34" rx="27" ry="18"/>
<text text-anchor="middle" x="193" y="-30.3" font-family="Times,serif" font-size="14.00">b</text>
</g>
<!-- a&#45;&gt;b -->
<g id="edge1" class="edge">
<title>a&#45;&gt;b</title>
<path fill="none" stroke="black" d="M193,-87.7C193,-79.98 193,-70.71 193,-62.11"/>
<polygon fill="black" stroke="black" points="196.5,-62.1 193,-52.1 189.5,-62.1 196.5,-62.1"/>
</g>
<!-- c -->
<g id="node3" class="node">
<title>c</title>
<ellipse fill="none" stroke="black" cx="265" cy="-34" rx="27" ry="18"/>
<text text-anchor="middle" x="265" y="-30.3" font-family="Times,serif" font-size="14.00">c</text>
</g>
<!-- a&#45;&gt;c -->
<g id="edge2" class="edge">
<title>a&#45;&gt;c</title>
<path fill="none" stroke="black" d="M207.57,-90.83C217.75,-80.94 231.52,-67.55 243.03,-56.36"/>
<polygon fill="black" stroke="black" points="245.47,-58.87 250.2,-49.38 240.59,-53.85 245.47,-58.87"/>
</g>
<!-- x -->
<g id="node4" class="node">
<title>x</title>
<ellipse fill="none" stroke="black" cx="78" cy="-181" rx="27" ry="18"/>
<text text-anchor="middle" x="78" y="-177.3" font-family="Times,serif" font-size="14.00">x</text>
</g>
<!-- y -->
<g id="node5" class="node">
<title>y</title>
<ellipse fill="none" stroke="black" cx="115" cy="-106" rx="27" ry="18"/>
<text text-anchor="middle" x="115" y="-102.3" font-family="Times,serif" font-size="14.00">y</text>
</g>
<!-- x&#45;&gt;y -->
<g id="edge3" class="edge">
<title>x&#45;&gt;y</title>
<path fill="none" stroke="black" d="M86.21,-163.8C90.91,-154.54 96.9,-142.72 102.2,-132.26"/>
<polygon fill="black" stroke="black" points="105.41,-133.66 106.81,-123.16 99.17,-130.49 105.41,-133.66"/>
</g>
<!-- z -->
<g id="node6" class="node">
<title>z</title>
<ellipse fill="none" stroke="black" cx="43" cy="-34" rx="27" ry="18"/>
<text text-anchor="middle" x="43" y="-30.3" font-family="Times,serif" font-size="14.00">z</text>
</g>
<!-- x&#45;&gt;z -->
<g id="edge4" class="edge">
<title>x&#45;&gt;z</title>
<path fill="none" stroke="black" d="M73.92,-163.08C67.91,-138.2 56.63,-91.48 49.49,-61.87"/>
<polygon fill="black" stroke="black" points="52.81,-60.71 47.06,-51.81 46,-62.35 52.81,-60.71"/>
</g>
<!-- y&#45;&gt;b -->
<g id="edge9" class="edge">
<title>y&#45;&gt;b</title>
<path fill="none" stroke="black" d="M130.41,-91.17C141.73,-81.01 157.31,-67.03 170.09,-55.56"/>
<polygon fill="black" stroke="black" points="172.52,-58.09 177.62,-48.8 167.84,-52.88 172.52,-58.09"/>
</g>
<!-- y&#45;&gt;z -->
<g id="edge5" class="edge">
<title>y&#45;&gt;z</title>
<path fill="none" stroke="black" d="M100.43,-90.83C90.25,-80.94 76.48,-67.55 64.97,-56.36"/>
<polygon fill="black" stroke="black" points="67.41,-53.85 57.8,-49.38 62.53,-58.87 67.41,-53.85"/>
</g>
<!-- q -->
<g id="node7" class="node">
<title>q</title>
<ellipse fill="none" stroke="black" cx="115" cy="-34" rx="27" ry="18"/>
<text text-anchor="middle" x="115" y="-30.3" font-family="Times,serif" font-size="14.00">q</text>
</g>
<!-- y&#45;&gt;q -->
<g id="edge6" class="edge">
<title>y&#45;&gt;q</title>
<path fill="none" stroke="black" d="M115,-87.7C115,-79.98 115,-70.71 115,-62.11"/>
<polygon fill="black" stroke="black" points="118.5,-62.1 115,-52.1 111.5,-62.1 118.5,-62.1"/>
</g>
<!-- top -->
<g id="node8" class="node">
<title>top</title>
<ellipse fill="none" stroke="black" cx="189" cy="-181" rx="27" ry="18"/>
<text text-anchor="middle" x="189" y="-177.3" font-family="Times,serif" font-size="14.00">top</text>
</g>
<!-- top&#45;&gt;a -->
<g id="edge7" class="edge">
<title>top&#45;&gt;a</title>
<path fill="none" stroke="black" d="M189.95,-162.7C190.41,-154.25 190.98,-143.87 191.5,-134.37"/>
<polygon fill="black" stroke="black" points="195.01,-134.35 192.06,-124.18 188.02,-133.97 195.01,-134.35"/>
</g>
<!-- top&#45;&gt;y -->
<g id="edge8" class="edge">
<title>top&#45;&gt;y</title>
<path fill="none" stroke="black" d="M170.11,-167.9C164.68,-164.06 158.9,-159.6 154,-155 146.22,-147.69 138.6,-138.81 132.19,-130.69"/>
<polygon fill="black" stroke="black" points="134.85,-128.41 125.99,-122.6 129.29,-132.67 134.85,-128.41"/>
</g>
</g>
</svg>
